<svg width="198" height="88" viewBox="0 0 198 88" fill="none" xmlns="http://www.w3.org/2000/svg">
<g clip-path="url(#clip0_26_664)">
<path d="M120.672 6.01656C120.17 5.01225 118.097 1.62591 116.938 0.673096H130.046C129.234 1.78042 129.441 2.78473 129.75 3.59591L136.458 17.3601L140.141 9.75055C141.75 6.32558 140.592 2.79761 139.484 0.673096H146.592C143.875 3.75042 143.167 5.01225 141.454 8.48872L132.029 28.0471H131.578L120.685 6.01656H120.672Z" fill="#DE0D22"/>
<path d="M144.377 14.9908C144.377 7.67729 149.772 0.518343 159.352 0.325206C166.459 0.170697 169.832 3.69867 169.987 7.53566C170.193 12.377 165.352 16.3556 158.489 16.3556C156.828 16.3556 155.257 16.0595 153.995 15.5444C154.948 20.2827 158.077 24.0682 162.622 24.0682C165.944 24.0682 169.021 21.39 170.592 17.5659L170.991 17.8621C169.626 25.4717 162.828 28.858 157.832 28.858C148.858 28.858 144.364 21.9051 144.364 14.9908H144.377ZM162.931 7.43265C162.983 3.80167 161.463 1.08488 159.506 1.08488C154.871 1.08488 152.849 9.76318 153.854 14.9521C154.755 15.2998 155.721 15.5058 156.57 15.5058C160.6 15.5058 162.828 11.8748 162.918 7.43265H162.931Z" fill="#DE0D22"/>
<path d="M196.807 5.06348C196.807 7.88328 194.335 10.1494 191.618 10.1494C190.666 10.1494 189.648 9.94341 188.799 9.24812C189.558 8.48844 189.957 7.48413 189.957 6.62145C189.957 5.11498 189.056 3.94328 187.846 3.94328C185.077 3.94328 182.798 10.5486 182.798 16.3427V20.2312C182.798 23.7592 182.798 24.9695 184.112 28.0983H172.42C173.888 24.9695 173.734 23.7592 173.734 20.2312V9.35112C173.734 8.29531 173.94 5.92616 172.176 3.5055C175.704 3.29949 179.592 2.44968 182.811 0.685697V10.5614C183.97 5.72014 186.597 0.222168 191.631 0.222168C194.863 0.222168 196.82 2.48831 196.82 5.06348H196.807Z" fill="#DE0D22"/>
<path d="M90.079 14.9908C90.079 7.67729 95.4739 0.518343 105.054 0.325206C112.161 0.170697 115.534 3.69867 115.689 7.53566C115.895 12.377 111.054 16.3556 104.191 16.3556C102.53 16.3556 100.959 16.0595 99.6972 15.5444C100.65 20.2827 103.779 24.0682 108.324 24.0682C111.646 24.0682 114.723 21.39 116.294 17.5659L116.693 17.8621C115.328 25.4717 108.53 28.858 103.534 28.858C94.5598 28.858 90.0661 21.9051 90.0661 14.9908H90.079ZM108.633 7.43265C108.685 3.80167 107.165 1.08488 105.208 1.08488C100.573 1.08488 98.5513 9.76318 99.5556 14.9521C100.457 15.2998 101.423 15.5058 102.272 15.5058C106.303 15.5058 108.53 11.8748 108.62 7.43265H108.633Z" fill="#DE0D22"/>
<path d="M58.2628 67.6528C59.8594 64.2278 59.7049 62.9016 59.7049 59.0389V38.3732C59.7049 37.2144 59.9238 34.6135 57.9924 31.961C61.8552 31.7422 66.1171 30.8022 69.6579 28.8708V59.0389C69.6579 62.9016 69.6579 64.2278 71.1 67.6528H58.2757H58.2628Z" fill="#DE0D22"/>
<path d="M72.967 53.1674C72.967 45.3775 78.4907 37.137 89.3193 37.137C100.148 37.137 105.401 45.2616 105.401 53.0515C105.401 60.8413 100.045 68.5282 89.3193 68.5282C78.5937 68.5282 72.967 60.8413 72.967 53.1674ZM95.7314 53.0128C95.7314 45.5577 93.5812 37.652 89.2678 37.652C84.9544 37.652 82.7526 45.5577 82.7526 53.0128C82.7526 60.4679 84.9672 67.9874 89.2678 67.9874C93.5683 67.9874 95.7314 60.5323 95.7314 53.0128Z" fill="#DE0D22"/>
<path d="M107.384 53.1674C107.384 45.3775 112.908 37.137 123.736 37.137C134.564 37.137 139.818 45.2616 139.818 53.0515C139.818 60.8413 134.461 68.5282 123.736 68.5282C113.011 68.5282 107.384 60.8413 107.384 53.1674ZM130.148 53.0128C130.148 45.5577 127.998 37.652 123.685 37.652C119.371 37.652 117.17 45.5577 117.17 53.0128C117.17 60.4679 119.384 67.9874 123.685 67.9874C127.985 67.9874 130.148 60.5323 130.148 53.0128Z" fill="#DE0D22"/>
<path d="M164.515 59.1418V50.4635C164.515 45.5964 163.356 43.1114 161.141 43.1114C158.708 43.1114 155.45 47.3604 153.686 54.7769V59.0259C153.686 62.8887 153.686 64.2149 155.128 67.6398H142.304C143.901 64.2149 143.746 62.8887 143.746 59.0259V47.1415C143.746 45.9827 144.016 43.3818 142.034 40.7294C145.896 40.5105 150.21 39.5706 153.699 37.6392V52.5623C155.463 46.3175 159.892 37.1499 166.408 37.1499C173.76 37.1499 174.481 44.2187 174.481 51.3519V53.3477C176.026 47.3218 180.674 37.1628 187.408 37.1628C194.76 37.1628 195.481 44.2316 195.481 51.3648V59.1547C195.481 63.0174 195.481 64.3436 196.923 67.7686H184.099C185.695 64.3436 185.541 63.0174 185.541 59.1547V50.0386C185.541 45.5063 184.382 43.1372 182.167 43.1372C179.631 43.1372 176.193 47.7209 174.481 55.8456V59.1547C174.481 63.0174 174.481 64.3436 175.923 67.7686H163.098C164.695 64.3436 164.541 63.0174 164.541 59.1547L164.515 59.1418Z" fill="#DE0D22"/>
<path d="M42.696 30.4031C46.7905 27.1713 48.7347 22.6648 48.7347 18.3256C48.7347 10.0336 41.5758 2.74585 28.6485 2.74585H21.4637C21.4637 3.23513 21.4895 3.72441 21.5024 4.22657H22.1462C30.979 4.22657 35.2537 10.7675 35.2537 17.5015C35.2537 24.2356 30.9146 30.7765 22.3522 31.2014C22.3779 31.7551 22.3908 32.2959 22.4166 32.8495C32.2408 33.3259 37.2109 41.3991 37.2109 49.3949C37.2109 57.3908 32.5756 65.1292 23.3179 65.8245C23.3179 66.3653 23.3307 66.9189 23.3307 67.4597H29.3952C44.46 67.4597 53.9494 56.7599 53.9494 46.4335C53.9494 40.163 50.5116 33.9826 42.696 30.3902V30.4031Z" fill="#DE0D22"/>
<path d="M15.7083 48.777C15.5409 47.9916 15.9014 46.7297 15.5538 45.4679C14.9228 43.2146 13.5323 41.6309 11.6138 40.382C9.55367 39.03 7.91844 37.3175 7.09439 34.987C6.72099 33.9441 6.59223 32.811 6.34759 31.7165C6.24459 31.2659 6.06432 30.8281 5.98707 30.3646C5.85831 29.6178 6.14158 29.3216 6.90125 29.3731C8.794 29.5148 9.79831 30.3517 10.2232 31.9097C10.6739 33.5707 11.1503 35.2316 11.7812 36.8411C12.1932 37.9098 12.7597 38.824 13.7125 39.545C14.3821 40.0601 14.8198 40.8069 15.2319 41.5537C15.3091 41.6824 15.3735 41.8498 15.5151 41.8112C15.6825 41.7725 15.5924 41.6052 15.5795 41.4893C15.4765 40.1116 15.425 38.7081 15.2061 37.3561C14.8327 35.1544 14.8198 32.9269 14.3821 30.738C14.0988 29.283 14.1117 27.7765 13.9829 26.2958C13.8928 25.2014 13.6868 24.8408 12.6567 24.6477C11.0859 24.3516 9.73393 23.6305 8.33047 22.9095C6.19308 21.8022 4.64798 20.1412 3.29602 18.2613C2.78099 17.5403 2.05994 17.0124 1.71229 16.1239C0.939742 14.141 0.308827 12.1582 0.553468 10.0079C0.656474 9.15809 0.875364 8.35979 1.35177 7.63874C1.48053 7.44561 1.58353 7.20097 1.7638 7.08508C3.09001 6.31253 3.90119 6.66018 3.92694 8.02502C3.97844 9.94352 4.71236 11.6818 5.24027 13.42C6.1287 16.3171 7.81543 18.8665 9.86269 21.1326C10.764 22.1241 12.4507 24.0683 14.0215 23.7078C15.219 23.4245 15.4765 22.1112 16.0044 21.1197C17.704 17.9909 19.5581 14.9651 20.8844 11.6431C21.3736 10.4199 21.7599 9.18384 22.1204 7.92201C22.2878 7.32972 22.6355 6.81469 23.0089 6.33829C23.5625 5.63012 24.3351 5.75887 24.9789 6.38979C27.5154 8.87482 25.1591 13.1754 24.3351 15.8664C23.923 17.2055 23.0604 18.2484 22.3264 19.3558C21.6698 20.3472 20.82 21.2614 19.7899 21.9438C18.2706 22.9481 15.6568 23.6949 15.9529 25.9353C16.0945 26.9782 16.7255 27.9825 16.8542 29.1156C17.0345 30.738 17.0345 32.3861 17.1375 34.0084C17.2662 36.0557 17.3821 38.0901 17.5495 40.1373C17.601 40.8326 17.704 41.515 17.6525 42.2103C17.6525 42.3262 17.7298 42.4936 17.8328 42.558C18.0002 42.6739 18.0903 42.4807 18.1289 42.3777C18.5152 41.3863 18.953 40.4206 18.9787 39.3004C19.0302 36.648 19.3006 34.0213 20.0989 31.459C20.4337 30.3646 21.129 29.4761 21.6698 28.4976C21.8887 28.0984 22.4037 27.7508 23.0217 27.9182C23.614 28.0727 24.3737 28.9482 24.3866 29.5663C24.4123 30.1714 24.3866 30.8152 24.1291 31.356C23.3694 32.8882 23.1247 34.5621 22.8415 36.2102C22.4938 38.1802 21.5153 39.8541 20.4981 41.4764C19.6611 42.8155 18.9015 44.2061 17.8328 45.4035C17.5881 45.6739 17.4594 46.0344 17.4594 46.4336C17.4594 48.571 17.6268 50.7084 17.2662 52.8329C17.2147 53.129 17.2791 53.3865 17.395 53.6441C17.4336 53.7342 17.4594 53.8758 17.5109 53.8887C17.7169 53.9273 17.6396 53.7342 17.6911 53.6441C17.9229 53.1419 18.013 52.5882 18.2191 52.0603C19.3908 48.9959 20.7298 45.7769 22.4294 43.0473C22.7642 42.5193 23.1505 42.0816 23.5625 41.6309C25.2235 39.8669 25.4939 42.4035 25.4424 43.6653C25.3265 46.3435 23.4981 48.7641 22.2878 51.0818C21.4251 52.7299 19.6096 53.6183 18.5796 55.1505C17.5366 56.6956 16.9572 58.5755 16.9057 60.4296C16.8413 62.3481 16.3521 64.2022 16.1589 66.1078C16.0945 66.7388 15.5666 67.1765 15.0387 67.125C14.3949 67.0607 13.8542 66.5456 13.9572 65.889C14.0859 65.0134 14.2791 64.1378 14.5623 63.3009C15.6568 59.9532 16.3006 56.3351 14.0988 53.3222C12.3735 50.953 9.73393 49.3822 7.98282 47.0388C6.88838 45.558 6.14158 43.9099 6.05145 42.0429C6.0257 41.5022 6.28321 41.1803 6.83687 41.103C7.7253 40.9742 8.96138 41.6824 9.33478 42.764C9.97857 44.6052 11.2919 46.0473 12.4894 47.5538C13.661 49.0345 14.3048 50.5796 15.2705 52.1376C15.3349 52.2406 15.4894 52.3694 15.5795 52.3565C15.7469 52.3436 15.7083 52.1505 15.7083 52.0217C15.7083 51.0818 15.7083 50.1547 15.7083 48.7641V48.777ZM17.2662 54.7771H17.3435L17.3177 54.687L17.2662 54.7771Z" fill="#DE0D22"/>
<path d="M20.0605 8.78455C20.0605 10.3039 19.3652 11.5915 18.554 12.8018C17.3694 14.5915 16.3007 16.4328 15.2706 18.3126C14.7814 19.214 14.6655 20.1281 14.6011 21.1067C14.5496 21.905 14.0088 22.1368 13.3521 21.6732C13.0817 21.4801 12.8242 21.2483 12.6439 20.9908C11.6139 19.4843 10.3907 18.1324 9.23183 16.7289C8.33052 15.6216 7.6481 14.3984 7.10732 13.0979C6.55366 11.7717 5.93562 10.4713 5.60085 9.04207C5.18882 7.26521 5.48497 6.37677 6.95281 5.32096C8.18889 4.43253 9.63098 3.94324 10.9443 3.2222C11.2405 3.05481 11.5881 3.06769 11.9229 3.11919C12.4379 3.19645 12.9787 3.2222 13.4552 3.41534C14.7299 3.93037 16.0432 4.29089 17.3694 4.66429C19.0175 5.11494 19.5969 6.38965 19.9961 7.81887C20.0862 8.12789 20.0476 8.46266 20.0605 8.79743V8.78455Z" fill="#DE0D22"/>
<path d="M193.721 79.8311C194.235 78.8949 195.231 78.4116 196.635 78.4116V79.8159C196.515 79.8008 196.408 79.8008 196.303 79.8008C194.747 79.8008 193.781 80.7521 193.781 82.5037V86.49H192.332V78.4871H193.721V79.8311Z" fill="#DE0D22"/>
<path d="M190.319 82.5339C190.319 82.6547 190.304 82.8359 190.288 82.9717H183.796C183.977 84.3761 185.11 85.3123 186.695 85.3123C187.631 85.3123 188.416 84.9952 189.005 84.3458L189.805 85.282C189.081 86.1277 187.978 86.5807 186.65 86.5807C184.068 86.5807 182.346 84.8744 182.346 82.4886C182.346 80.1179 184.053 78.4116 186.362 78.4116C188.672 78.4116 190.319 80.0726 190.319 82.5339ZM186.362 79.6347C184.973 79.6347 183.947 80.5709 183.796 81.9299H188.93C188.779 80.586 187.767 79.6347 186.362 79.6347Z" fill="#DE0D22"/>
<path d="M178.869 86.4903V75.2861H180.318V86.4903H178.869Z" fill="#DE0D22"/>
<path d="M175.375 76.947C174.818 76.947 174.394 76.5394 174.394 76.0108C174.394 75.4824 174.818 75.0596 175.375 75.0596C175.934 75.0596 176.358 75.4672 176.358 75.9807C176.358 76.5243 175.95 76.947 175.375 76.947ZM174.652 86.4902V78.4872H176.1V86.4902H174.652Z" fill="#DE0D22"/>
<path d="M168.541 78.4116C170.73 78.4116 171.969 79.4686 171.969 81.6581V86.49H170.595V85.4331C170.112 86.1578 169.221 86.5807 167.967 86.5807C166.155 86.5807 165.008 85.6142 165.008 84.2251C165.008 82.9416 165.838 81.8846 168.224 81.8846H170.519V81.5977C170.519 80.3745 169.809 79.665 168.375 79.665C167.423 79.665 166.458 79.9971 165.838 80.5256L165.234 79.4385C166.065 78.7739 167.257 78.4116 168.541 78.4116ZM168.209 85.4633C169.296 85.4633 170.157 84.965 170.519 84.0439V82.9265H168.285C166.85 82.9265 166.442 83.4852 166.442 84.1647C166.442 84.965 167.107 85.4633 168.209 85.4633Z" fill="#DE0D22"/>
<path d="M163.422 84.9802L163.875 86.022C163.436 86.3995 162.771 86.5808 162.122 86.5808C160.506 86.5808 159.586 85.6898 159.586 84.0742V79.6802H158.227V78.4872H159.586V76.7356H161.036V78.4872H163.33V79.6802H161.036V84.0138C161.036 84.8745 161.489 85.3576 162.289 85.3576C162.712 85.3576 163.119 85.2218 163.422 84.9802Z" fill="#DE0D22"/>
<path d="M157.361 82.5339C157.361 82.6547 157.347 82.8359 157.331 82.9717H150.838C151.02 84.3761 152.153 85.3123 153.738 85.3123C154.674 85.3123 155.459 84.9952 156.048 84.3458L156.848 85.282C156.124 86.1277 155.021 86.5807 153.693 86.5807C151.11 86.5807 149.388 84.8744 149.388 82.4886C149.388 80.1179 151.096 78.4116 153.405 78.4116C155.715 78.4116 157.361 80.0726 157.361 82.5339ZM153.405 79.6347C152.016 79.6347 150.989 80.5709 150.838 81.9299H155.973C155.821 80.586 154.81 79.6347 153.405 79.6347Z" fill="#DE0D22"/>
<path d="M145.501 79.8311C146.015 78.8949 147.011 78.4116 148.416 78.4116V79.8159C148.295 79.8008 148.189 79.8008 148.084 79.8008C146.528 79.8008 145.562 80.7521 145.562 82.5037V86.49H144.112V78.4871H145.501V79.8311Z" fill="#DE0D22"/>
<path d="M135.253 79.8311C135.767 78.8949 136.763 78.4116 138.167 78.4116V79.8159C138.047 79.8008 137.94 79.8008 137.835 79.8008C136.279 79.8008 135.314 80.7521 135.314 82.5037V86.49H133.864V78.4871H135.253V79.8311Z" fill="#DE0D22"/>
<path d="M131.851 82.5339C131.851 82.6547 131.836 82.8359 131.82 82.9717H125.328C125.509 84.3761 126.642 85.3123 128.227 85.3123C129.163 85.3123 129.948 84.9952 130.537 84.3458L131.338 85.282C130.613 86.1277 129.511 86.5807 128.182 86.5807C125.6 86.5807 123.878 84.8744 123.878 82.4886C123.878 80.1179 125.584 78.4116 127.895 78.4116C130.205 78.4116 131.851 80.0726 131.851 82.5339ZM127.895 79.6347C126.506 79.6347 125.479 80.5709 125.328 81.9299H130.462C130.311 80.586 129.299 79.6347 127.895 79.6347Z" fill="#DE0D22"/>
<path d="M122.07 78.4871H123.368L120.379 86.49H118.989L116.679 80.4198L114.339 86.49H112.949L109.975 78.4871H111.349L113.674 84.8593L116.09 78.4871H117.313L119.684 84.8894L122.07 78.4871Z" fill="#DE0D22"/>
<path d="M105.322 86.5807C102.921 86.5807 101.155 84.8744 101.155 82.4886C101.155 80.1029 102.921 78.4116 105.322 78.4116C107.723 78.4116 109.475 80.1029 109.475 82.4886C109.475 84.8744 107.723 86.5807 105.322 86.5807ZM105.322 85.3123C106.862 85.3123 108.01 84.1949 108.01 82.4886C108.01 80.7823 106.862 79.68 105.322 79.68C103.782 79.68 102.619 80.7823 102.619 82.4886C102.619 84.1949 103.782 85.3123 105.322 85.3123Z" fill="#DE0D22"/>
<path d="M92.5653 77.7775C92.5653 76.2223 93.5015 75.1956 95.2078 75.1956C95.8269 75.1956 96.4309 75.3465 96.8385 75.6636L96.4006 76.7659C96.0987 76.5394 95.7061 76.3884 95.2832 76.3884C94.4225 76.3884 93.9847 76.8716 93.9847 77.7927V78.4873H96.3101V79.6802H94.0148V86.4902H92.5653V79.6802H91.2062V78.4873H92.5653V77.7775ZM97.6841 75.2861H99.1337V86.4902H97.6841V75.2861Z" fill="#DE0D22"/>
</g>
<defs>
<clipPath id="clip0_26_664">
<rect width="197" height="87.5556" fill="white" transform="translate(0.5 0.222168)"/>
</clipPath>
</defs>
</svg>
