<svg width="153" height="71" viewBox="0 0 153 71" fill="none" xmlns="http://www.w3.org/2000/svg">
<path d="M93.3315 4.50001C92.9415 3.72001 91.3315 1.09001 90.4315 0.350006H100.612C99.9815 1.21001 100.142 1.99001 100.382 2.62001L105.592 13.31L108.452 7.40001C109.702 4.74001 108.802 2.00001 107.942 0.350006H113.462C111.352 2.74001 110.802 3.72001 109.472 6.42001L102.152 21.61H101.802L93.3415 4.50001H93.3315Z" fill="white"/>
<path d="M111.742 11.47C111.742 5.79 115.932 0.230003 123.372 0.0800032C128.892 -0.0399968 131.512 2.7 131.632 5.68C131.792 9.44 128.032 12.53 122.702 12.53C121.412 12.53 120.192 12.3 119.212 11.9C119.952 15.58 122.382 18.52 125.912 18.52C128.492 18.52 130.882 16.44 132.102 13.47L132.412 13.7C131.352 19.61 126.072 22.24 122.192 22.24C115.222 22.24 111.732 16.84 111.732 11.47H111.742ZM126.152 5.6C126.192 2.78 125.012 0.670003 123.492 0.670003C119.892 0.670003 118.322 7.41 119.102 11.44C119.802 11.71 120.552 11.87 121.212 11.87C124.342 11.87 126.072 9.05 126.142 5.6H126.152Z" fill="white"/>
<path d="M152.462 3.76C152.462 5.95 150.542 7.71 148.432 7.71C147.692 7.71 146.902 7.55 146.242 7.01C146.832 6.42 147.142 5.64 147.142 4.97C147.142 3.8 146.442 2.89 145.502 2.89C143.352 2.89 141.582 8.02 141.582 12.52V15.54C141.582 18.28 141.582 19.22 142.602 21.65H133.522C134.662 19.22 134.542 18.28 134.542 15.54V7.09C134.542 6.27 134.702 4.43 133.332 2.55C136.072 2.39 139.092 1.73 141.592 0.36V8.03C142.492 4.27 144.532 0 148.442 0C150.952 0 152.472 1.76 152.472 3.76H152.462Z" fill="white"/>
<path d="M69.5715 11.47C69.5715 5.79 73.7615 0.230003 81.2015 0.0800032C86.7215 -0.0399968 89.3415 2.7 89.4615 5.68C89.6215 9.44 85.8615 12.53 80.5315 12.53C79.2415 12.53 78.0215 12.3 77.0415 11.9C77.7815 15.58 80.2115 18.52 83.7415 18.52C86.3215 18.52 88.7115 16.44 89.9315 13.47L90.2415 13.7C89.1815 19.61 83.9015 22.24 80.0215 22.24C73.0515 22.24 69.5615 16.84 69.5615 11.47H69.5715ZM83.9815 5.6C84.0215 2.78 82.8415 0.670003 81.3215 0.670003C77.7215 0.670003 76.1515 7.41 76.9315 11.44C77.6315 11.71 78.3815 11.87 79.0415 11.87C82.1715 11.87 83.9015 9.05 83.9715 5.6H83.9815Z" fill="white"/>
<path d="M44.8615 52.37C46.1015 49.71 45.9815 48.68 45.9815 45.68V29.63C45.9815 28.73 46.1515 26.71 44.6515 24.65C47.6515 24.48 50.9615 23.75 53.7115 22.25V45.68C53.7115 48.68 53.7115 49.71 54.8315 52.37H44.8715H44.8615Z" fill="white"/>
<path d="M56.2815 41.12C56.2815 35.07 60.5715 28.67 68.9815 28.67C77.3915 28.67 81.4715 34.98 81.4715 41.03C81.4715 47.08 77.3115 53.05 68.9815 53.05C60.6515 53.05 56.2815 47.08 56.2815 41.12ZM73.9615 41C73.9615 35.21 72.2915 29.07 68.9415 29.07C65.5915 29.07 63.8815 35.21 63.8815 41C63.8815 46.79 65.6015 52.63 68.9415 52.63C72.2815 52.63 73.9615 46.84 73.9615 41Z" fill="white"/>
<path d="M83.0115 41.12C83.0115 35.07 87.3015 28.67 95.7115 28.67C104.121 28.67 108.201 34.98 108.201 41.03C108.201 47.08 104.041 53.05 95.7115 53.05C87.3815 53.05 83.0115 47.08 83.0115 41.12ZM100.691 41C100.691 35.21 99.0215 29.07 95.6715 29.07C92.3215 29.07 90.6115 35.21 90.6115 41C90.6115 46.79 92.3315 52.63 95.6715 52.63C99.0115 52.63 100.691 46.84 100.691 41Z" fill="white"/>
<path d="M127.382 45.76V39.02C127.382 35.24 126.482 33.31 124.762 33.31C122.872 33.31 120.342 36.61 118.972 42.37V45.67C118.972 48.67 118.972 49.7 120.092 52.36H110.132C111.372 49.7 111.252 48.67 111.252 45.67V36.44C111.252 35.54 111.462 33.52 109.922 31.46C112.922 31.29 116.272 30.56 118.982 29.06V40.65C120.352 35.8 123.792 28.68 128.852 28.68C134.562 28.68 135.122 34.17 135.122 39.71V41.26C136.322 36.58 139.932 28.69 145.162 28.69C150.872 28.69 151.432 34.18 151.432 39.72V45.77C151.432 48.77 151.432 49.8 152.552 52.46H142.592C143.832 49.8 143.712 48.77 143.712 45.77V38.69C143.712 35.17 142.812 33.33 141.092 33.33C139.122 33.33 136.452 36.89 135.122 43.2V45.77C135.122 48.77 135.122 49.8 136.242 52.46H126.282C127.522 49.8 127.402 48.77 127.402 45.77L127.382 45.76Z" fill="white"/>
<path d="M32.7715 23.44C35.9515 20.93 37.4615 17.43 37.4615 14.06C37.4615 7.61999 31.9015 1.95999 21.8615 1.95999H16.2815C16.2815 2.33999 16.3015 2.71999 16.3115 3.10999H16.8115C23.6715 3.10999 26.9915 8.18999 26.9915 13.42C26.9915 18.65 23.6215 23.73 16.9715 24.06C16.9915 24.49 17.0015 24.91 17.0215 25.34C24.6515 25.71 28.5115 31.98 28.5115 38.19C28.5115 44.4 24.9115 50.41 17.7215 50.95C17.7215 51.37 17.7315 51.8 17.7315 52.22H22.4415C34.1415 52.22 41.5115 43.91 41.5115 35.89C41.5115 31.02 38.8415 26.22 32.7715 23.43V23.44Z" fill="white"/>
<path d="M11.8115 37.71C11.6815 37.1 11.9615 36.12 11.6915 35.14C11.2015 33.39 10.1215 32.16 8.63153 31.19C7.03153 30.14 5.76153 28.81 5.12153 27C4.83153 26.19 4.73153 25.31 4.54153 24.46C4.46153 24.11 4.32153 23.77 4.26153 23.41C4.16153 22.83 4.38153 22.6 4.97153 22.64C6.44153 22.75 7.22153 23.4 7.55153 24.61C7.90153 25.9 8.27153 27.19 8.76153 28.44C9.08153 29.27 9.52153 29.98 10.2615 30.54C10.7815 30.94 11.1215 31.52 11.4415 32.1C11.5015 32.2 11.5515 32.33 11.6615 32.3C11.7915 32.27 11.7215 32.14 11.7115 32.05C11.6315 30.98 11.5915 29.89 11.4215 28.84C11.1315 27.13 11.1215 25.4 10.7815 23.7C10.5615 22.57 10.5715 21.4 10.4715 20.25C10.4015 19.4 10.2415 19.12 9.44153 18.97C8.22153 18.74 7.17153 18.18 6.08153 17.62C4.42153 16.76 3.22153 15.47 2.17153 14.01C1.77153 13.45 1.21153 13.04 0.941526 12.35C0.341525 10.81 -0.148475 9.26999 0.0415255 7.59999C0.121525 6.93999 0.291526 6.31999 0.661526 5.75999C0.761526 5.60999 0.841526 5.41999 0.981526 5.32999C2.01153 4.72999 2.64153 4.99999 2.66153 6.05999C2.70153 7.54999 3.27153 8.89999 3.68153 10.25C4.37153 12.5 5.68153 14.48 7.27153 16.24C7.97153 17.01 9.28153 18.52 10.5015 18.24C11.4315 18.02 11.6315 17 12.0415 16.23C13.3615 13.8 14.8015 11.45 15.8315 8.86999C16.2115 7.91999 16.5115 6.95999 16.7915 5.97999C16.9215 5.51999 17.1915 5.11999 17.4815 4.74999C17.9115 4.19999 18.5115 4.29999 19.0115 4.78999C20.9815 6.71999 19.1515 10.06 18.5115 12.15C18.1915 13.19 17.5215 14 16.9515 14.86C16.4415 15.63 15.7815 16.34 14.9815 16.87C13.8015 17.65 11.7715 18.23 12.0015 19.97C12.1115 20.78 12.6015 21.56 12.7015 22.44C12.8415 23.7 12.8415 24.98 12.9215 26.24C13.0215 27.83 13.1115 29.41 13.2415 31C13.2815 31.54 13.3615 32.07 13.3215 32.61C13.3215 32.7 13.3815 32.83 13.4615 32.88C13.5915 32.97 13.6615 32.82 13.6915 32.74C13.9915 31.97 14.3315 31.22 14.3515 30.35C14.3915 28.29 14.6015 26.25 15.2215 24.26C15.4815 23.41 16.0215 22.72 16.4415 21.96C16.6115 21.65 17.0115 21.38 17.4915 21.51C17.9515 21.63 18.5415 22.31 18.5515 22.79C18.5715 23.26 18.5515 23.76 18.3515 24.18C17.7615 25.37 17.5715 26.67 17.3515 27.95C17.0815 29.48 16.3215 30.78 15.5315 32.04C14.8815 33.08 14.2915 34.16 13.4615 35.09C13.2715 35.3 13.1715 35.58 13.1715 35.89C13.1715 37.55 13.3015 39.21 13.0215 40.86C12.9815 41.09 13.0315 41.29 13.1215 41.49C13.1515 41.56 13.1715 41.67 13.2115 41.68C13.3715 41.71 13.3115 41.56 13.3515 41.49C13.5315 41.1 13.6015 40.67 13.7615 40.26C14.6715 37.88 15.7115 35.38 17.0315 33.26C17.2915 32.85 17.5915 32.51 17.9115 32.16C19.2015 30.79 19.4115 32.76 19.3715 33.74C19.2815 35.82 17.8615 37.7 16.9215 39.5C16.2515 40.78 14.8415 41.47 14.0415 42.66C13.2315 43.86 12.7815 45.32 12.7415 46.76C12.6915 48.25 12.3115 49.69 12.1615 51.17C12.1115 51.66 11.7015 52 11.2915 51.96C10.7915 51.91 10.3715 51.51 10.4515 51C10.5515 50.32 10.7015 49.64 10.9215 48.99C11.7715 46.39 12.2715 43.58 10.5615 41.24C9.22153 39.4 7.17153 38.18 5.81153 36.36C4.96153 35.21 4.38153 33.93 4.31153 32.48C4.29153 32.06 4.49153 31.81 4.92153 31.75C5.61153 31.65 6.57153 32.2 6.86153 33.04C7.36153 34.47 8.38153 35.59 9.31153 36.76C10.2215 37.91 10.7215 39.11 11.4715 40.32C11.5215 40.4 11.6415 40.5 11.7115 40.49C11.8415 40.48 11.8115 40.33 11.8115 40.23C11.8115 39.5 11.8115 38.78 11.8115 37.7V37.71ZM13.0215 42.37H13.0815L13.0615 42.3L13.0215 42.37Z" fill="white"/>
<path d="M15.1916 6.65001C15.1916 7.83001 14.6516 8.83001 14.0216 9.77001C13.1016 11.16 12.2716 12.59 11.4716 14.05C11.0916 14.75 11.0016 15.46 10.9516 16.22C10.9116 16.84 10.4916 17.02 9.98155 16.66C9.77155 16.51 9.57155 16.33 9.43155 16.13C8.63155 14.96 7.68155 13.91 6.78155 12.82C6.08155 11.96 5.55155 11.01 5.13155 10C4.70155 8.97001 4.22155 7.96001 3.96155 6.85001C3.64155 5.47001 3.87155 4.78001 5.01155 3.96001C5.97155 3.27001 7.09155 2.89001 8.11155 2.33001C8.34155 2.20001 8.61155 2.21001 8.87155 2.25001C9.27155 2.31001 9.69155 2.33001 10.0616 2.48001C11.0516 2.88001 12.0716 3.16001 13.1016 3.45001C14.3816 3.80001 14.8316 4.79001 15.1416 5.90001C15.2116 6.14001 15.1816 6.40001 15.1916 6.66001V6.65001Z" fill="white"/>
<path d="M150.352 62.9649C150.737 62.9649 151.08 63.0461 151.381 63.2085C151.682 63.3649 151.919 63.6025 152.094 63.9214C152.268 64.2402 152.355 64.6282 152.355 65.0854V68H151.543V65.2027C151.543 64.7094 151.42 64.3334 151.173 64.0748C150.933 63.8101 150.605 63.6777 150.19 63.6777C149.763 63.6777 149.423 63.8161 149.17 64.0928C148.917 64.3635 148.791 64.7575 148.791 65.2749V68H147.979V65.2027C147.979 64.7094 147.856 64.3334 147.609 64.0748C147.368 63.8101 147.041 63.6777 146.625 63.6777C146.198 63.6777 145.858 63.8161 145.606 64.0928C145.353 64.3635 145.227 64.7575 145.227 65.2749V68H144.406V63.0551H145.227V63.768C145.389 63.5093 145.606 63.3108 145.876 63.1724C146.153 63.0341 146.457 62.9649 146.788 62.9649C147.203 62.9649 147.57 63.0581 147.889 63.2446C148.208 63.4311 148.445 63.7048 148.602 64.0657C148.74 63.7168 148.969 63.4461 149.287 63.2536C149.606 63.0611 149.961 62.9649 150.352 62.9649Z" fill="white"/>
<path d="M143.322 65.3381C143.322 65.4945 143.313 65.6599 143.295 65.8344H139.342C139.372 66.3216 139.538 66.7036 139.839 66.9804C140.145 67.2511 140.515 67.3864 140.949 67.3864C141.303 67.3864 141.598 67.3052 141.833 67.1428C142.073 66.9743 142.242 66.7518 142.338 66.475H143.222C143.09 66.9503 142.825 67.3383 142.428 67.6391C142.031 67.9338 141.538 68.0812 140.949 68.0812C140.479 68.0812 140.058 67.976 139.685 67.7654C139.318 67.5549 139.03 67.2571 138.819 66.8721C138.608 66.4811 138.503 66.0299 138.503 65.5185C138.503 65.0072 138.605 64.559 138.81 64.174C139.015 63.789 139.3 63.4943 139.667 63.2897C140.04 63.0792 140.467 62.9739 140.949 62.9739C141.418 62.9739 141.833 63.0762 142.194 63.2807C142.555 63.4852 142.831 63.768 143.024 64.1289C143.222 64.4838 143.322 64.8869 143.322 65.3381ZM142.474 65.1666C142.474 64.8538 142.404 64.5861 142.266 64.3635C142.128 64.1349 141.938 63.9635 141.698 63.8492C141.463 63.7289 141.201 63.6687 140.912 63.6687C140.497 63.6687 140.142 63.8011 139.848 64.0658C139.559 64.3304 139.393 64.6974 139.351 65.1666H142.474Z" fill="white"/>
<path d="M136.525 63.7319V66.6465C136.525 66.8871 136.576 67.0585 136.678 67.1608C136.78 67.257 136.958 67.3052 137.21 67.3052H137.815V68H137.075C136.618 68 136.275 67.8947 136.046 67.6842C135.818 67.4736 135.704 67.1277 135.704 66.6465V63.7319H135.063V63.0551H135.704V61.8098H136.525V63.0551H137.815V63.7319H136.525Z" fill="white"/>
<path d="M132.559 68.0812C132.18 68.0812 131.84 68.0181 131.54 67.8917C131.239 67.7594 131.001 67.5789 130.827 67.3503C130.652 67.1157 130.556 66.848 130.538 66.5472H131.386C131.41 66.7939 131.525 66.9954 131.729 67.1518C131.94 67.3082 132.213 67.3864 132.55 67.3864C132.863 67.3864 133.11 67.3172 133.29 67.1789C133.471 67.0405 133.561 66.8661 133.561 66.6555C133.561 66.4389 133.465 66.2795 133.272 66.1773C133.08 66.069 132.782 65.9637 132.379 65.8614C132.012 65.7652 131.711 65.6689 131.476 65.5727C131.248 65.4704 131.049 65.323 130.881 65.1305C130.718 64.932 130.637 64.6733 130.637 64.3545C130.637 64.1018 130.712 63.8702 130.863 63.6597C131.013 63.4491 131.227 63.2837 131.503 63.1634C131.78 63.0371 132.096 62.9739 132.451 62.9739C132.998 62.9739 133.441 63.1123 133.777 63.389C134.114 63.6657 134.295 64.0447 134.319 64.526H133.498C133.48 64.2673 133.374 64.0597 133.182 63.9033C132.995 63.7469 132.743 63.6687 132.424 63.6687C132.129 63.6687 131.895 63.7319 131.72 63.8582C131.546 63.9845 131.458 64.15 131.458 64.3545C131.458 64.5169 131.51 64.6523 131.612 64.7606C131.72 64.8628 131.852 64.9471 132.009 65.0132C132.171 65.0734 132.394 65.1426 132.677 65.2208C133.031 65.317 133.32 65.4133 133.543 65.5095C133.765 65.5998 133.955 65.7381 134.111 65.9246C134.274 66.1111 134.358 66.3547 134.364 66.6555C134.364 66.9262 134.289 67.1699 134.138 67.3864C133.988 67.603 133.774 67.7744 133.498 67.9008C133.227 68.0211 132.914 68.0812 132.559 68.0812Z" fill="white"/>
<path d="M129.983 63.0551L127.005 70.3281H126.157L127.132 67.9459L125.138 63.0551H126.049L127.601 67.0616L129.135 63.0551H129.983Z" fill="white"/>
<path d="M122.76 68.0812C122.381 68.0812 122.041 68.0181 121.741 67.8917C121.44 67.7594 121.202 67.5789 121.028 67.3503C120.853 67.1157 120.757 66.848 120.739 66.5472H121.587C121.611 66.7939 121.726 66.9954 121.93 67.1518C122.141 67.3082 122.414 67.3864 122.751 67.3864C123.064 67.3864 123.311 67.3172 123.491 67.1789C123.672 67.0405 123.762 66.8661 123.762 66.6555C123.762 66.4389 123.666 66.2795 123.473 66.1773C123.281 66.069 122.983 65.9637 122.58 65.8614C122.213 65.7652 121.912 65.6689 121.677 65.5727C121.449 65.4704 121.25 65.323 121.082 65.1305C120.919 64.932 120.838 64.6733 120.838 64.3545C120.838 64.1018 120.913 63.8702 121.064 63.6597C121.214 63.4491 121.428 63.2837 121.705 63.1634C121.981 63.0371 122.297 62.9739 122.652 62.9739C123.199 62.9739 123.642 63.1123 123.978 63.389C124.315 63.6657 124.496 64.0447 124.52 64.526H123.699C123.681 64.2673 123.575 64.0597 123.383 63.9033C123.196 63.7469 122.944 63.6687 122.625 63.6687C122.33 63.6687 122.096 63.7319 121.921 63.8582C121.747 63.9845 121.659 64.15 121.659 64.3545C121.659 64.5169 121.711 64.6523 121.813 64.7606C121.921 64.8628 122.053 64.9471 122.21 65.0132C122.372 65.0734 122.595 65.1426 122.878 65.2208C123.233 65.317 123.521 65.4133 123.744 65.5095C123.966 65.5998 124.156 65.7381 124.312 65.9246C124.475 66.1111 124.559 66.3547 124.565 66.6555C124.565 66.9262 124.49 67.1699 124.339 67.3864C124.189 67.603 123.975 67.7744 123.699 67.9008C123.428 68.0211 123.115 68.0812 122.76 68.0812Z" fill="white"/>
<path d="M116.319 63.7319V66.6465C116.319 66.8871 116.37 67.0585 116.472 67.1608C116.574 67.257 116.752 67.3052 117.005 67.3052H117.609V68H116.869C116.412 68 116.069 67.8947 115.84 67.6842C115.612 67.4736 115.498 67.1277 115.498 66.6465V63.7319H114.857V63.0551H115.498V61.8098H116.319V63.0551H117.609V63.7319H116.319Z" fill="white"/>
<path d="M111.954 62.9649C112.556 62.9649 113.043 63.1484 113.416 63.5153C113.789 63.8763 113.976 64.3996 113.976 65.0854V68H113.164V65.2027C113.164 64.7094 113.04 64.3334 112.794 64.0748C112.547 63.8101 112.21 63.6777 111.783 63.6777C111.35 63.6777 111.004 63.8131 110.745 64.0838C110.493 64.3545 110.366 64.7485 110.366 65.2659V68H109.545V63.0551H110.366V63.7589C110.529 63.5063 110.748 63.3108 111.025 63.1724C111.308 63.0341 111.618 62.9649 111.954 62.9649Z" fill="white"/>
<path d="M108.461 65.3381C108.461 65.4945 108.452 65.6599 108.434 65.8344H104.482C104.512 66.3216 104.677 66.7036 104.978 66.9804C105.285 67.2511 105.655 67.3864 106.088 67.3864C106.443 67.3864 106.738 67.3052 106.972 67.1428C107.213 66.9743 107.381 66.7518 107.478 66.475H108.362C108.23 66.9503 107.965 67.3383 107.568 67.6391C107.171 67.9338 106.678 68.0812 106.088 68.0812C105.619 68.0812 105.198 67.976 104.825 67.7654C104.458 67.5549 104.169 67.2571 103.959 66.8721C103.748 66.4811 103.643 66.0299 103.643 65.5185C103.643 65.0072 103.745 64.559 103.95 64.174C104.154 63.789 104.44 63.4943 104.807 63.2897C105.18 63.0792 105.607 62.9739 106.088 62.9739C106.557 62.9739 106.972 63.0762 107.333 63.2807C107.694 63.4852 107.971 63.768 108.163 64.1289C108.362 64.4838 108.461 64.8869 108.461 65.3381ZM107.613 65.1666C107.613 64.8538 107.544 64.5861 107.406 64.3635C107.267 64.1349 107.078 63.9635 106.837 63.8492C106.602 63.7289 106.341 63.6687 106.052 63.6687C105.637 63.6687 105.282 63.8011 104.987 64.0658C104.698 64.3304 104.533 64.6974 104.491 65.1666H107.613Z" fill="white"/>
<path d="M100.599 62.9649C100.984 62.9649 101.327 63.0461 101.628 63.2085C101.929 63.3649 102.166 63.6025 102.341 63.9214C102.515 64.2402 102.603 64.6282 102.603 65.0854V68H101.79V65.2027C101.79 64.7094 101.667 64.3334 101.42 64.0748C101.18 63.8101 100.852 63.6777 100.437 63.6777C100.01 63.6777 99.6699 63.8161 99.4173 64.0928C99.1646 64.3635 99.0383 64.7575 99.0383 65.2749V68H98.2262V65.2027C98.2262 64.7094 98.1028 64.3334 97.8562 64.0748C97.6156 63.8101 97.2877 63.6777 96.8726 63.6777C96.4455 63.6777 96.1056 63.8161 95.853 64.0928C95.6003 64.3635 95.474 64.7575 95.474 65.2749V68H94.6528V63.0551H95.474V63.768C95.6364 63.5093 95.853 63.3108 96.1237 63.1724C96.4004 63.0341 96.7042 62.9649 97.035 62.9649C97.4501 62.9649 97.8171 63.0581 98.1359 63.2446C98.4547 63.4311 98.6924 63.7048 98.8488 64.0657C98.9871 63.7168 99.2157 63.4461 99.5346 63.2536C99.8534 63.0611 100.208 62.9649 100.599 62.9649Z" fill="white"/>
<path d="M93.5689 65.3381C93.5689 65.4945 93.5599 65.6599 93.5419 65.8344H89.5896C89.6196 66.3216 89.7851 66.7036 90.0858 66.9804C90.3926 67.2511 90.7626 67.3864 91.1957 67.3864C91.5507 67.3864 91.8454 67.3052 92.08 67.1428C92.3207 66.9743 92.4891 66.7518 92.5854 66.475H93.4697C93.3373 66.9503 93.0726 67.3383 92.6756 67.6391C92.2786 67.9338 91.7853 68.0812 91.1957 68.0812C90.7265 68.0812 90.3054 67.976 89.9324 67.7654C89.5655 67.5549 89.2767 67.2571 89.0662 66.8721C88.8556 66.4811 88.7504 66.0299 88.7504 65.5185C88.7504 65.0072 88.8526 64.559 89.0572 64.174C89.2617 63.789 89.5474 63.4943 89.9144 63.2897C90.2874 63.0792 90.7145 62.9739 91.1957 62.9739C91.665 62.9739 92.08 63.0762 92.441 63.2807C92.8019 63.4852 93.0787 63.768 93.2712 64.1289C93.4697 64.4838 93.5689 64.8869 93.5689 65.3381ZM92.7207 65.1666C92.7207 64.8538 92.6515 64.5861 92.5132 64.3635C92.3748 64.1349 92.1853 63.9635 91.9447 63.8492C91.7101 63.7289 91.4484 63.6687 91.1596 63.6687C90.7446 63.6687 90.3896 63.8011 90.0949 64.0658C89.8061 64.3304 89.6407 64.6974 89.5986 65.1666H92.7207Z" fill="white"/>
<path d="M84.9986 62.9739C85.4257 62.9739 85.7987 63.0672 86.1175 63.2536C86.4423 63.4401 86.683 63.6747 86.8394 63.9575V63.0551H87.6695V68.1083C87.6695 68.5595 87.5733 68.9595 87.3808 69.3084C87.1883 69.6634 86.9116 69.9401 86.5506 70.1386C86.1957 70.3371 85.7806 70.4364 85.3054 70.4364C84.6557 70.4364 84.1143 70.283 83.6811 69.9762C83.248 69.6694 82.9924 69.2513 82.9141 68.7219H83.7263C83.8165 69.0227 84.003 69.2633 84.2857 69.4438C84.5685 69.6303 84.9083 69.7235 85.3054 69.7235C85.7566 69.7235 86.1235 69.5821 86.4063 69.2994C86.695 69.0167 86.8394 68.6196 86.8394 68.1083V67.0706C86.677 67.3593 86.4363 67.6 86.1175 67.7925C85.7987 67.985 85.4257 68.0812 84.9986 68.0812C84.5594 68.0812 84.1594 67.9729 83.7985 67.7564C83.4435 67.5398 83.1638 67.236 82.9593 66.845C82.7547 66.454 82.6525 66.0088 82.6525 65.5095C82.6525 65.0042 82.7547 64.562 82.9593 64.1831C83.1638 63.7981 83.4435 63.5003 83.7985 63.2897C84.1594 63.0792 84.5594 62.9739 84.9986 62.9739ZM86.8394 65.5185C86.8394 65.1456 86.7642 64.8207 86.6138 64.544C86.4634 64.2673 86.2589 64.0567 86.0002 63.9124C85.7475 63.762 85.4678 63.6868 85.161 63.6868C84.8542 63.6868 84.5745 63.759 84.3218 63.9033C84.0692 64.0477 83.8676 64.2583 83.7172 64.535C83.5669 64.8117 83.4917 65.1365 83.4917 65.5095C83.4917 65.8885 83.5669 66.2194 83.7172 66.5021C83.8676 66.7788 84.0692 66.9924 84.3218 67.1428C84.5745 67.2872 84.8542 67.3593 85.161 67.3593C85.4678 67.3593 85.7475 67.2872 86.0002 67.1428C86.2589 66.9924 86.4634 66.7788 86.6138 66.5021C86.7642 66.2194 86.8394 65.8915 86.8394 65.5185Z" fill="white"/>
<path d="M76.5546 65.5095C76.5546 65.0042 76.6568 64.562 76.8614 64.1831C77.0659 63.7981 77.3456 63.5003 77.7006 63.2897C78.0615 63.0792 78.4615 62.9739 78.9007 62.9739C79.3338 62.9739 79.7098 63.0672 80.0286 63.2536C80.3475 63.4401 80.5851 63.6747 80.7415 63.9575V63.0551H81.5716V68H80.7415V67.0796C80.5791 67.3684 80.3354 67.609 80.0106 67.8015C79.6917 67.988 79.3188 68.0812 78.8917 68.0812C78.4525 68.0812 78.0555 67.9729 77.7006 67.7564C77.3456 67.5398 77.0659 67.236 76.8614 66.845C76.6568 66.454 76.5546 66.0088 76.5546 65.5095ZM80.7415 65.5185C80.7415 65.1456 80.6663 64.8207 80.5159 64.544C80.3655 64.2673 80.161 64.0567 79.9023 63.9124C79.6496 63.762 79.3699 63.6868 79.0631 63.6868C78.7563 63.6868 78.4766 63.759 78.2239 63.9033C77.9713 64.0477 77.7697 64.2583 77.6193 64.535C77.469 64.8117 77.3938 65.1365 77.3938 65.5095C77.3938 65.8885 77.469 66.2194 77.6193 66.5021C77.7697 66.7788 77.9713 66.9924 78.2239 67.1428C78.4766 67.2872 78.7563 67.3593 79.0631 67.3593C79.3699 67.3593 79.6496 67.2872 79.9023 67.1428C80.161 66.9924 80.3655 66.7788 80.5159 66.5021C80.6663 66.2194 80.7415 65.8915 80.7415 65.5185Z" fill="white"/>
<path d="M73.4988 62.9649C74.1003 62.9649 74.5876 63.1484 74.9606 63.5153C75.3335 63.8763 75.52 64.3996 75.52 65.0854V68H74.7079V65.2027C74.7079 64.7094 74.5846 64.3334 74.3379 64.0748C74.0913 63.8101 73.7544 63.6777 73.3273 63.6777C72.8942 63.6777 72.5483 63.8131 72.2896 64.0838C72.0369 64.3545 71.9106 64.7485 71.9106 65.2659V68H71.0895V63.0551H71.9106V63.7589C72.073 63.5063 72.2926 63.3108 72.5693 63.1724C72.8521 63.0341 73.1619 62.9649 73.4988 62.9649Z" fill="white"/>
<path d="M64.6847 65.5095C64.6847 65.0042 64.787 64.562 64.9915 64.1831C65.196 63.7981 65.4758 63.5003 65.8307 63.2897C66.1916 63.0792 66.5917 62.9739 67.0308 62.9739C67.4639 62.9739 67.8399 63.0672 68.1588 63.2536C68.4776 63.4401 68.7152 63.6747 68.8716 63.9575V63.0551H69.7018V68H68.8716V67.0796C68.7092 67.3684 68.4656 67.609 68.1407 67.8015C67.8219 67.988 67.4489 68.0812 67.0218 68.0812C66.5826 68.0812 66.1856 67.9729 65.8307 67.7564C65.4758 67.5398 65.196 67.236 64.9915 66.845C64.787 66.454 64.6847 66.0088 64.6847 65.5095ZM68.8716 65.5185C68.8716 65.1456 68.7964 64.8207 68.646 64.544C68.4956 64.2673 68.2911 64.0567 68.0324 63.9124C67.7798 63.762 67.5 63.6868 67.1932 63.6868C66.8864 63.6868 66.6067 63.759 66.354 63.9033C66.1014 64.0477 65.8999 64.2583 65.7495 64.535C65.5991 64.8117 65.5239 65.1365 65.5239 65.5095C65.5239 65.8885 65.5991 66.2194 65.7495 66.5021C65.8999 66.7788 66.1014 66.9924 66.354 67.1428C66.6067 67.2872 66.8864 67.3593 67.1932 67.3593C67.5 67.3593 67.7798 67.2872 68.0324 67.1428C68.2911 66.9924 68.4956 66.7788 68.646 66.5021C68.7964 66.2194 68.8716 65.8915 68.8716 65.5185Z" fill="white"/>
<path d="M61.6413 62.9649C62.0263 62.9649 62.3692 63.0461 62.67 63.2085C62.9708 63.3649 63.2084 63.6025 63.3829 63.9214C63.5573 64.2402 63.6446 64.6282 63.6446 65.0854V68H62.8324V65.2027C62.8324 64.7094 62.7091 64.3334 62.4625 64.0748C62.2218 63.8101 61.894 63.6777 61.4789 63.6777C61.0518 63.6777 60.7119 63.8161 60.4592 64.0928C60.2066 64.3635 60.0803 64.7575 60.0803 65.2749V68H59.2681V65.2027C59.2681 64.7094 59.1448 64.3334 58.8982 64.0748C58.6576 63.8101 58.3297 63.6777 57.9146 63.6777C57.4875 63.6777 57.1476 63.8161 56.895 64.0928C56.6423 64.3635 56.516 64.7575 56.516 65.2749V68H55.6948V63.0551H56.516V63.768C56.6784 63.5093 56.895 63.3108 57.1657 63.1724C57.4424 63.0341 57.7462 62.9649 58.077 62.9649C58.4921 62.9649 58.8591 63.0581 59.1779 63.2446C59.4967 63.4311 59.7344 63.7048 59.8908 64.0657C60.0291 63.7168 60.2577 63.4461 60.5766 63.2536C60.8954 63.0611 61.2503 62.9649 61.6413 62.9649Z" fill="white"/>
</svg>
